<svg width="106" height="27" viewBox="0 0 106 27" fill="none" xmlns="http://www.w3.org/2000/svg">
<path d="M52.6459 20.6035V20.2195H52.6567C54.2605 20.2195 54.7018 19.7608 54.7018 18.0755V12.2941C54.7018 9.97946 53.9914 8.94479 52.4091 8.94479C51.4081 8.94479 50.3317 9.49946 49.2231 10.5981L49.18 10.6408V18.0648C49.18 19.6648 49.6752 20.1768 51.2682 20.2088V20.5928H44.3364V20.2088C45.9509 20.1768 46.4245 19.6861 46.4245 18.0648V11.0888C46.4245 9.49946 46.1016 8.91279 45.219 8.91279C44.9284 8.91279 44.4763 9.01946 44.1104 9.14746V8.74212L48.136 7.52612C48.2974 7.48346 48.4373 7.46212 48.5665 7.46212C48.9648 7.46212 49.1693 7.70746 49.1693 8.18746V9.77679L49.4168 9.48879C50.8914 7.76079 52.1293 7.07812 53.8299 7.07812C56.2517 7.07812 57.4357 8.61413 57.4357 11.7608V18.0861C57.4357 19.7075 57.9524 20.2301 59.5562 20.2301V20.6141H52.6459V20.6035Z" fill="white"/>
<path d="M65.2283 21.0212C63.4954 21.0212 62.1392 20.4346 61.0951 19.2079C60.0618 18.0132 59.5344 16.4346 59.5344 14.5359C59.5344 12.4772 60.1479 10.7706 61.4072 9.29857C62.6666 7.79457 64.2381 7.06923 66.2293 7.06923C67.4887 7.06923 68.4682 7.42123 69.1247 8.1039L69.3723 8.3599V4.62657C69.3723 2.58923 69.0386 1.93857 67.9838 1.93857C67.7255 1.93857 67.2734 2.03457 66.9505 2.14123L66.9613 1.72523L71.4282 0.338568C71.482 0.327902 71.5358 0.317235 71.5896 0.317235C71.8802 0.317235 72.117 0.551901 72.117 0.839901V16.7226C72.117 18.8132 72.4615 19.8479 73.2472 20.0612C73.4302 20.1146 73.8823 20.1572 74.485 20.1679V20.5626L70.1365 20.5199H69.3723V19.1652L69.1355 19.3679C67.8546 20.4879 66.5738 21.0212 65.2283 21.0212ZM66.2509 7.8799C64.0981 7.8799 62.645 10.1412 62.645 13.5012C62.645 17.0532 64.3242 19.5386 66.7137 19.5386C67.564 19.5386 68.4466 19.1226 69.34 18.3012L69.3831 18.2586V12.0826C69.3938 9.4159 68.2529 7.8799 66.2509 7.8799Z" fill="white"/>
<path d="M80.3747 21.0195C78.5879 21.0195 77.1348 20.4008 75.9185 19.1208C74.7668 17.8408 74.1748 16.2088 74.1748 14.2781C74.1748 12.1661 74.756 10.4275 75.8862 9.09412C77.0379 7.75012 78.5771 7.07812 80.4608 7.07812C83.7222 7.07812 85.8426 9.11546 85.9072 12.2835H76.3598V12.4221C76.3598 16.1661 78.2435 18.4915 81.2788 18.4915C83.2055 18.4915 84.6371 17.5635 85.5412 15.7181L85.8641 15.9528C85.5735 17.3821 84.9384 18.5875 83.9805 19.5368C82.9687 20.5395 81.7955 21.0195 80.3747 21.0195ZM79.7504 7.93146C77.9636 7.93146 76.5213 9.41412 76.3921 11.3875L76.3814 11.5368H82.8288L82.818 11.3875C82.6996 9.19012 81.5802 7.93146 79.7504 7.93146Z" fill="white"/>
<path d="M87.7795 20.6045V4.74321C87.7795 2.80187 87.4243 2.15121 86.391 2.15121C86.1004 2.15121 85.6376 2.22587 85.3147 2.33254V1.96987L89.6955 0.337871C89.7493 0.316538 89.8139 0.305871 89.8784 0.305871H89.9968C90.2875 0.305871 90.5243 0.540538 90.5243 0.828538V18.0872C90.5243 19.6232 91.0732 20.1992 92.6124 20.2312V20.6152H87.7795V20.6045Z" fill="white"/>
<path d="M102.246 21.0195C101.148 21.0195 100.61 20.3901 100.578 19.0888L100.567 18.7901L100.341 18.9821C98.7804 20.3261 97.4026 21.0195 96.2509 21.0195C94.1628 21.0195 92.8604 19.7821 92.8604 17.8088C92.8604 16.7421 93.4093 15.7928 94.518 14.9181C95.6589 14.0328 97.6609 13.1048 100.47 12.1555L100.567 12.1235V12.0275C100.567 9.39279 100.169 7.87812 98.113 7.87812C96.3693 7.87812 96.0033 8.81679 96.0033 9.60612C96.0033 11.0248 95.5513 11.7181 94.6148 11.7181C93.8614 11.7181 93.3555 11.1955 93.3555 10.4168C93.3555 9.52079 93.8076 8.76346 94.7332 8.10212C95.6912 7.41946 96.9721 7.07812 98.5543 7.07812C101.751 7.07812 103.312 8.37946 103.312 11.0461V17.0621C103.312 18.7688 103.57 19.1741 104.022 19.3128C104.065 19.3235 104.108 19.3341 104.162 19.3341C104.421 19.3341 104.733 19.1315 105.099 18.7475L105.4 19.1101C104.399 20.3795 103.333 21.0195 102.246 21.0195ZM100.384 12.9128C96.7568 14.3741 95.6481 15.3768 95.6481 17.1795C95.6481 18.3848 96.5308 19.2915 97.6932 19.2915C98.4682 19.2915 99.3939 18.8968 100.524 18.0968L100.578 18.0541V12.8381L100.384 12.9128Z" fill="white"/>
<path d="M40.8712 21.0195C39.7734 21.0195 39.2352 20.3901 39.2029 19.0888L39.1921 18.7901L38.9661 18.9821C37.4054 20.3261 36.0276 21.0195 34.8759 21.0195C32.7878 21.0195 31.4854 19.7821 31.4854 17.8088C31.4854 16.7421 32.0343 15.7928 33.143 14.9181C34.2839 14.0328 36.2859 13.1048 39.0952 12.1555L39.1921 12.1235V12.0275C39.1921 9.39279 38.7939 7.87812 36.738 7.87812C34.9943 7.87812 34.6283 8.81679 34.6283 9.60612C34.6283 11.0248 34.1763 11.7181 33.2398 11.7181C32.4864 11.7181 31.9805 11.1955 31.9805 10.4168C31.9805 9.52079 32.4326 8.76346 33.3582 8.10212C34.3054 7.41946 35.5971 7.07812 37.1793 7.07812C40.3869 7.07812 41.9368 8.37946 41.9368 11.0461V17.0621C41.9368 18.7688 42.1952 19.1741 42.6472 19.3128C42.6903 19.3235 42.7334 19.3341 42.7872 19.3341C43.0455 19.3341 43.3576 19.1421 43.7236 18.7475L44.025 19.1101C43.024 20.3795 41.9691 21.0195 40.8712 21.0195ZM39.0091 12.9128C35.3818 14.3741 34.2731 15.3661 34.2731 17.1795C34.2731 18.3848 35.1558 19.2915 36.3182 19.2915C37.0932 19.2915 38.0189 18.8968 39.1491 18.0968L39.2029 18.0541V12.8381L39.0091 12.9128Z" fill="white"/>
<path d="M22.4975 5.17108L22.4867 5.16042L22.3468 5.07508L22.3145 5.05375L14.7584 0.73375L14.6293 0.659083C13.9835 0.296417 13.2408 0.09375 12.4443 0.09375C11.6478 0.09375 10.9051 0.296417 10.27 0.659083L10.1624 0.723084L10.1301 0.744417L2.53096 5.08575L2.38027 5.17108H2.3695C1.08863 5.94975 0.227539 7.35775 0.227539 8.95775V17.8111C0.227539 19.4218 1.08863 20.8191 2.38027 21.5978L2.47714 21.6511L10.2162 26.0778C10.8728 26.4511 11.6262 26.6644 12.4443 26.6644C13.2515 26.6644 14.0158 26.4511 14.6723 26.0778L22.4006 21.6511L22.4222 21.6404C23.7568 20.8724 24.661 19.4431 24.661 17.8004V8.94708C24.6502 7.34708 23.7891 5.93908 22.4975 5.17108ZM22.8312 13.5124H22.7881C17.1587 13.5338 12.5734 18.0991 12.5734 23.6778C12.5734 23.7524 12.5088 23.8058 12.4443 23.8058C12.3689 23.8058 12.3151 23.7418 12.3151 23.6778V23.6351C12.2936 18.0564 7.68674 13.5124 2.05736 13.5124C1.98201 13.5124 1.92819 13.4484 1.92819 13.3844C1.92819 13.3098 1.99278 13.2564 2.05736 13.2564H2.10041C7.72979 13.2351 12.3151 8.66975 12.3151 3.09108C12.3151 3.01642 12.3797 2.96308 12.4443 2.96308C12.5196 2.96308 12.5734 3.02708 12.5734 3.09108C12.5734 8.69108 17.1695 13.2564 22.8312 13.2564C22.9065 13.2564 22.9603 13.3204 22.9603 13.3844C22.9711 13.4591 22.9065 13.5124 22.8312 13.5124Z" fill="white"/>
</svg>
